{
	"asset":{
		"generator":"Khronos glTF Blender I/O v3.6.28",
		"version":"2.0"
	},
	"scene":0,
	"scenes":[
		{
			"name":"Scene",
			"nodes":[
				0
			]
		}
	],
	"nodes":[
		{
			"mesh":0,
			"name":"Area",
			"scale":[
				0.014999999664723873,
				0.014999999664723873,
				5.199999809265137
			]
		}
	],
	"materials":[
		{
			"doubleSided":true,
			"name":"Green.001",
			"pbrMetallicRoughness":{
				"baseColorFactor":[
					0,
					0.337164044380188,
					0,
					1
				],
				"metallicFactor":0
			}
		},
		{
			"doubleSided":true,
			"name":"Red.001",
			"pbrMetallicRoughness":{
				"baseColorFactor":[
					0.5711221098899841,
					0,
					0,
					1
				],
				"metallicFactor":0
			}
		},
		{
			"doubleSided":true,
			"name":"Line.003",
			"pbrMetallicRoughness":{
				"baseColorFactor":[
					0,
					0,
					0,
					1
				],
				"metallicFactor":0
			}
		},
		{
			"doubleSided":true,
			"name":"Line.004",
			"pbrMetallicRoughness":{
				"baseColorFactor":[
					0,
					0,
					0,
					1
				],
				"metallicFactor":0
			}
		}
	],
	"meshes":[
		{
			"name":"Plane.009",
			"primitives":[
				{
					"attributes":{
						"POSITION":0,
						"NORMAL":1,
						"TEXCOORD_0":2
					},
					"indices":3,
					"material":0
				},
				{
					"attributes":{
						"POSITION":4,
						"NORMAL":5,
						"TEXCOORD_0":6
					},
					"indices":3,
					"material":1
				},
				{
					"attributes":{
						"POSITION":7,
						"NORMAL":8,
						"TEXCOORD_0":9
					},
					"indices":10,
					"material":2
				},
				{
					"attributes":{
						"POSITION":11,
						"NORMAL":12,
						"TEXCOORD_0":13
					},
					"indices":10,
					"material":3
				}
			]
		}
	],
	"accessors":[
		{
			"bufferView":0,
			"componentType":5126,
			"count":4,
			"max":[
				1,
				0,
				1
			],
			"min":[
				-1,
				0,
				-1
			],
			"type":"VEC3"
		},
		{
			"bufferView":1,
			"componentType":5126,
			"count":4,
			"type":"VEC3"
		},
		{
			"bufferView":2,
			"componentType":5126,
			"count":4,
			"type":"VEC2"
		},
		{
			"bufferView":3,
			"componentType":5123,
			"count":6,
			"type":"SCALAR"
		},
		{
			"bufferView":4,
			"componentType":5126,
			"count":4,
			"max":[
				346.66668701171875,
				0.06666667759418488,
				0.0028846159111708403
			],
			"min":[
				-346.66668701171875,
				0.06666667759418488,
				-0.0028846159111708403
			],
			"type":"VEC3"
		},
		{
			"bufferView":5,
			"componentType":5126,
			"count":4,
			"type":"VEC3"
		},
		{
			"bufferView":6,
			"componentType":5126,
			"count":4,
			"type":"VEC2"
		},
		{
			"bufferView":7,
			"componentType":5126,
			"count":28,
			"max":[
				266.96673583984375,
				-0.6666666865348816,
				0.9134616851806641
			],
			"min":[
				-266.9000244140625,
				-0.6666666865348816,
				-0.9134617447853088
			],
			"type":"VEC3"
		},
		{
			"bufferView":8,
			"componentType":5126,
			"count":28,
			"type":"VEC3"
		},
		{
			"bufferView":9,
			"componentType":5126,
			"count":28,
			"type":"VEC2"
		},
		{
			"bufferView":10,
			"componentType":5123,
			"count":42,
			"type":"SCALAR"
		},
		{
			"bufferView":11,
			"componentType":5126,
			"count":28,
			"max":[
				316.66668701171875,
				-0.6666666865348816,
				0.7700963616371155
			],
			"min":[
				-316.66668701171875,
				-0.6666666865348816,
				-0.7699038982391357
			],
			"type":"VEC3"
		},
		{
			"bufferView":12,
			"componentType":5126,
			"count":28,
			"type":"VEC3"
		},
		{
			"bufferView":13,
			"componentType":5126,
			"count":28,
			"type":"VEC2"
		}
	],
	"bufferViews":[
		{
			"buffer":0,
			"byteLength":48,
			"byteOffset":0,
			"target":34962
		},
		{
			"buffer":0,
			"byteLength":48,
			"byteOffset":48,
			"target":34962
		},
		{
			"buffer":0,
			"byteLength":32,
			"byteOffset":96,
			"target":34962
		},
		{
			"buffer":0,
			"byteLength":12,
			"byteOffset":128,
			"target":34963
		},
		{
			"buffer":0,
			"byteLength":48,
			"byteOffset":140,
			"target":34962
		},
		{
			"buffer":0,
			"byteLength":48,
			"byteOffset":188,
			"target":34962
		},
		{
			"buffer":0,
			"byteLength":32,
			"byteOffset":236,
			"target":34962
		},
		{
			"buffer":0,
			"byteLength":336,
			"byteOffset":268,
			"target":34962
		},
		{
			"buffer":0,
			"byteLength":336,
			"byteOffset":604,
			"target":34962
		},
		{
			"buffer":0,
			"byteLength":224,
			"byteOffset":940,
			"target":34962
		},
		{
			"buffer":0,
			"byteLength":84,
			"byteOffset":1164,
			"target":34963
		},
		{
			"buffer":0,
			"byteLength":336,
			"byteOffset":1248,
			"target":34962
		},
		{
			"buffer":0,
			"byteLength":336,
			"byteOffset":1584,
			"target":34962
		},
		{
			"buffer":0,
			"byteLength":224,
			"byteOffset":1920,
			"target":34962
		}
	],
	"buffers":[
		{
			"byteLength":2144,
			"uri":"data:application/octet-stream;base64,"
		}
	]
}
